<svg width="156" height="156" viewBox="0 0 156 156" fill="none" xmlns="http://www.w3.org/2000/svg">
<circle cx="78" cy="78" r="78" fill="black"/>
<path d="M113.289 108.453C110.125 111.969 105.496 114.801 99.4023 116.949C93.3086 119.098 86.6289 120.172 79.3633 120.172C68.1914 120.172 59.2656 116.754 52.5859 109.918C45.9062 103.082 42.332 93.5703 41.8633 81.3828L41.8047 74C41.8047 65.6016 43.2891 58.2773 46.2578 52.0273C49.2266 45.7383 53.4648 40.9141 58.9727 37.5547C64.5195 34.1562 70.9258 32.457 78.1914 32.457C88.8164 32.457 97.0586 34.8984 102.918 39.7812C108.816 44.625 112.254 51.8711 113.23 61.5195H93.4258C92.7227 56.7539 91.1992 53.3555 88.8555 51.3242C86.5117 49.293 83.1914 48.2773 78.8945 48.2773C73.7383 48.2773 69.7539 50.4648 66.9414 54.8398C64.1289 59.2148 62.7031 65.4648 62.6641 73.5898V78.7461C62.6641 87.2617 64.1094 93.668 67 97.9648C69.9297 102.223 74.5195 104.352 80.7695 104.352C86.1211 104.352 90.1055 103.16 92.7227 100.777V87.5352H78.4258V73.4141H113.289V108.453Z" fill="white"/>
</svg>
